<svg width="880" height="880" viewBox="0 0 880 880" fill="none" xmlns="http://www.w3.org/2000/svg">
<path d="M261.973 669.689C181.23 612.975 127.098 520.702 122.359 415.481" stroke="black" stroke-width="3"/>
<path d="M135.482 436.452L132.019 437.911L122.541 415.846L115.797 438.823L112.334 437.729L121.994 405.269L135.482 436.452Z" fill="black"/>
<path d="M778.873 410.74C775.409 522.708 716.174 620.452 627.776 677.166" stroke="black" stroke-width="3"/>
<path d="M639.259 655.283L642.175 657.471L627.958 676.801L651.288 671.148L652.017 674.613L619.027 682.636L639.259 655.283Z" fill="black"/>
<path d="M276.554 121.519C327.041 89.9712 386.641 71.7354 450.433 71.7354C508.393 71.7354 562.89 86.6888 610.096 113.131" stroke="black" stroke-width="3"/>
<path d="M585.491 113.313L586.038 109.666L609.732 113.131L593.875 95.2596L596.609 92.8889L619.027 118.237L585.491 113.313Z" fill="black"/>
<path d="M363.514 133.881V106.68H369.006V117.386H379.767V106.68H385.26V133.881H379.767V121.988H369.006V133.881H363.514ZM389.713 123.75C389.713 122.019 390.139 120.343 390.993 118.722C391.847 117.102 393.053 115.865 394.611 115.011C396.182 114.158 397.932 113.731 399.862 113.731C402.843 113.731 405.286 114.702 407.191 116.644C409.096 118.574 410.049 121.017 410.049 123.973C410.049 126.954 409.084 129.428 407.154 131.395C405.237 133.349 402.819 134.327 399.899 134.327C398.093 134.327 396.368 133.918 394.723 133.102C393.09 132.286 391.847 131.092 390.993 129.521C390.139 127.938 389.713 126.014 389.713 123.75ZM395.056 124.029C395.056 125.983 395.52 127.48 396.448 128.519C397.376 129.558 398.52 130.078 399.881 130.078C401.241 130.078 402.379 129.558 403.295 128.519C404.223 127.48 404.686 125.971 404.686 123.992C404.686 122.062 404.223 120.578 403.295 119.538C402.379 118.499 401.241 117.98 399.881 117.98C398.52 117.98 397.376 118.499 396.448 119.538C395.52 120.578 395.056 122.074 395.056 124.029ZM421.794 133.881V125.476C421.113 125.525 420.637 125.68 420.365 125.94C420.105 126.187 419.641 126.936 418.973 128.185L416.487 133.881H410.884L413.667 128.445C415.077 125.723 416.543 124.165 418.064 123.769C416.926 123.336 416.054 122.217 415.448 120.411C414.99 119.062 414.57 118.258 414.186 117.998C413.815 117.726 412.937 117.59 411.552 117.59V114.139C412.578 114.077 413.296 114.046 413.704 114.046C414.854 114.046 415.838 114.3 416.654 114.807C417.471 115.314 418.237 116.576 418.955 118.592C419.512 120.163 419.957 121.159 420.291 121.579C420.625 121.988 421.126 122.204 421.794 122.229V114.176H426.971V122.229C427.639 122.229 428.139 122.012 428.473 121.579C428.82 121.147 429.265 120.151 429.809 118.592C430.514 116.601 431.263 115.345 432.055 114.826C432.859 114.306 433.885 114.046 435.135 114.046C435.493 114.046 436.186 114.077 437.213 114.139V117.59C435.84 117.59 434.961 117.726 434.578 117.998C434.195 118.258 433.774 119.062 433.316 120.411C432.71 122.217 431.838 123.336 430.7 123.769C432.222 124.165 433.687 125.723 435.098 128.445L437.881 133.881H432.277L429.809 128.185C429.364 127.171 428.95 126.478 428.566 126.107C428.195 125.736 427.663 125.525 426.971 125.476V133.881H421.794ZM440.367 114.176H445.581V121.394H453.04V114.176H458.272V133.881H453.04V125.606H445.581V133.881H440.367V114.176ZM463.412 114.176H468.422V126.552L476.437 114.176H481.558V133.881H476.549V121.283L468.422 133.881H463.412V114.176ZM486.735 114.176H491.949V129.669H499.389V114.176H504.603V129.669H506.663V139.077H502.451V133.881H486.735V114.176ZM510.337 114.176H515.551V122.359H520.783C522.836 122.359 524.401 122.507 525.477 122.804C526.566 123.089 527.481 123.719 528.223 124.697C528.978 125.674 529.355 126.824 529.355 128.148C529.355 130.053 528.7 131.488 527.389 132.453C526.077 133.405 524.111 133.881 521.488 133.881H510.337V114.176ZM515.551 130.579H520.393C521.655 130.579 522.57 130.381 523.139 129.985C523.709 129.589 523.993 128.946 523.993 128.055C523.993 127.103 523.622 126.453 522.88 126.107C522.15 125.748 520.833 125.569 518.928 125.569H515.551V130.579ZM532.324 114.176H537.538V133.881H532.324V114.176Z" fill="black"/>
<path d="M331.387 177.834H342.844V192.354H340.383V179.871H333.848V192.354H331.387V177.834ZM345.633 185.094C345.633 182.405 346.38 180.414 347.875 179.12C349.124 178.044 350.646 177.506 352.441 177.506C354.438 177.506 356.069 178.162 357.336 179.475C358.603 180.778 359.236 182.583 359.236 184.889C359.236 186.758 358.954 188.23 358.389 189.305C357.833 190.371 357.017 191.201 355.941 191.793C354.875 192.386 353.708 192.682 352.441 192.682C350.409 192.682 348.764 192.03 347.506 190.727C346.257 189.424 345.633 187.546 345.633 185.094ZM348.162 185.094C348.162 186.953 348.568 188.348 349.379 189.278C350.19 190.198 351.211 190.659 352.441 190.659C353.663 190.659 354.679 190.194 355.49 189.264C356.301 188.334 356.707 186.917 356.707 185.012C356.707 183.217 356.297 181.858 355.477 180.938C354.665 180.008 353.654 179.543 352.441 179.543C351.211 179.543 350.19 180.004 349.379 180.924C348.568 181.845 348.162 183.235 348.162 185.094ZM372.771 171.832L374.945 171.86C374.845 172.835 374.626 173.514 374.289 173.897C373.961 174.28 373.533 174.526 373.004 174.635C372.484 174.745 371.459 174.799 369.928 174.799C367.895 174.799 366.51 174.995 365.771 175.387C365.033 175.779 364.5 176.408 364.172 177.274C363.853 178.131 363.675 179.238 363.639 180.596C364.258 179.675 364.983 178.987 365.812 178.532C366.642 178.067 367.576 177.834 368.615 177.834C370.52 177.834 372.097 178.491 373.346 179.803C374.594 181.106 375.219 182.875 375.219 185.108C375.219 186.803 374.904 188.193 374.275 189.278C373.646 190.362 372.899 191.201 372.033 191.793C371.176 192.386 370.005 192.682 368.52 192.682C366.797 192.682 365.457 192.29 364.5 191.506C363.543 190.713 362.809 189.702 362.299 188.471C361.788 187.241 361.533 185.099 361.533 182.045C361.533 178.208 362.18 175.624 363.475 174.293C364.778 172.963 366.779 172.297 369.477 172.297C371.154 172.297 372.106 172.27 372.334 172.215C372.562 172.161 372.708 172.033 372.771 171.832ZM372.648 185.039C372.648 183.526 372.288 182.287 371.568 181.321C370.857 180.355 369.85 179.871 368.547 179.871C367.189 179.871 366.141 180.382 365.402 181.403C364.664 182.424 364.295 183.786 364.295 185.491C364.295 187.177 364.701 188.467 365.512 189.36C366.332 190.253 367.339 190.7 368.533 190.7C369.755 190.7 370.743 190.185 371.5 189.155C372.266 188.116 372.648 186.744 372.648 185.039ZM387.797 187.678L390.34 187.993C389.939 189.478 389.196 190.631 388.111 191.452C387.027 192.272 385.641 192.682 383.955 192.682C381.831 192.682 380.145 192.03 378.896 190.727C377.657 189.414 377.037 187.578 377.037 185.217C377.037 182.774 377.666 180.879 378.924 179.53C380.182 178.181 381.813 177.506 383.818 177.506C385.76 177.506 387.346 178.167 388.576 179.489C389.807 180.81 390.422 182.67 390.422 185.067C390.422 185.213 390.417 185.431 390.408 185.723H379.58C379.671 187.318 380.122 188.539 380.934 189.387C381.745 190.235 382.757 190.659 383.969 190.659C384.871 190.659 385.641 190.422 386.279 189.948C386.917 189.474 387.423 188.717 387.797 187.678ZM379.717 183.7H387.824C387.715 182.478 387.405 181.562 386.895 180.952C386.111 180.004 385.094 179.53 383.846 179.53C382.715 179.53 381.763 179.908 380.988 180.664C380.223 181.421 379.799 182.433 379.717 183.7ZM401.893 177.834V184.11C402.676 184.11 403.228 183.959 403.547 183.659C403.866 183.358 404.331 182.483 404.941 181.034C405.516 179.657 406.031 178.778 406.486 178.395C406.933 178.021 407.644 177.834 408.619 177.834H409.521V179.871L408.852 179.858C408.195 179.858 407.776 179.953 407.594 180.145C407.402 180.345 407.111 180.942 406.719 181.936C406.354 182.884 406.017 183.54 405.707 183.905C405.397 184.269 404.914 184.602 404.258 184.903C405.324 185.185 406.363 186.17 407.375 187.856L410.082 192.354H407.375L404.736 187.856C404.199 186.944 403.729 186.347 403.328 186.065C402.927 185.782 402.449 185.641 401.893 185.641V192.354H399.377V185.641C398.83 185.641 398.356 185.782 397.955 186.065C397.554 186.338 397.085 186.935 396.547 187.856L393.908 192.354H391.201L393.895 187.856C394.915 186.17 395.959 185.185 397.025 184.903C396.296 184.565 395.786 184.201 395.494 183.809C395.202 183.408 394.765 182.46 394.182 180.965C393.981 180.464 393.767 180.154 393.539 180.036C393.302 179.917 392.951 179.858 392.486 179.858C392.368 179.858 392.126 179.862 391.762 179.871V177.834H392.104C393.051 177.834 393.717 177.894 394.1 178.012C394.492 178.121 394.838 178.363 395.139 178.737C395.449 179.101 395.85 179.867 396.342 181.034C396.943 182.465 397.399 183.335 397.709 183.645C398.028 183.955 398.584 184.11 399.377 184.11V177.834H401.893ZM413.787 177.834H423.904V190.33H425.477V196.469H423.453V192.354H412.023V196.469H410V190.33H411.299C413.031 187.979 413.86 183.814 413.787 177.834ZM415.838 179.871C415.656 184.584 414.926 188.07 413.65 190.33H421.457V179.871H415.838ZM437.672 190.563C436.76 191.338 435.881 191.884 435.033 192.203C434.195 192.523 433.292 192.682 432.326 192.682C430.731 192.682 429.505 192.295 428.648 191.52C427.792 190.736 427.363 189.738 427.363 188.526C427.363 187.815 427.523 187.168 427.842 186.584C428.17 185.992 428.594 185.518 429.113 185.162C429.642 184.807 430.234 184.538 430.891 184.356C431.374 184.228 432.103 184.105 433.078 183.987C435.065 183.75 436.528 183.467 437.467 183.139C437.476 182.802 437.48 182.588 437.48 182.496C437.48 181.494 437.248 180.787 436.783 180.377C436.154 179.821 435.22 179.543 433.98 179.543C432.823 179.543 431.966 179.748 431.41 180.159C430.863 180.56 430.458 181.275 430.193 182.305L427.787 181.977C428.006 180.947 428.366 180.118 428.867 179.489C429.368 178.851 430.093 178.363 431.041 178.026C431.989 177.679 433.087 177.506 434.336 177.506C435.576 177.506 436.583 177.652 437.357 177.944C438.132 178.235 438.702 178.605 439.066 179.051C439.431 179.489 439.686 180.045 439.832 180.719C439.914 181.138 439.955 181.895 439.955 182.989V186.27C439.955 188.558 440.005 190.007 440.105 190.618C440.215 191.219 440.424 191.798 440.734 192.354H438.164C437.909 191.843 437.745 191.246 437.672 190.563ZM437.467 185.067C436.574 185.431 435.234 185.741 433.447 185.996C432.436 186.142 431.72 186.306 431.301 186.489C430.882 186.671 430.558 186.94 430.33 187.295C430.102 187.642 429.988 188.029 429.988 188.457C429.988 189.114 430.234 189.661 430.727 190.098C431.228 190.536 431.957 190.754 432.914 190.754C433.862 190.754 434.705 190.549 435.443 190.139C436.182 189.72 436.724 189.15 437.07 188.43C437.335 187.874 437.467 187.054 437.467 185.969V185.067ZM443.811 177.834H446.271V183.905H449.252C449.471 181.827 450.118 180.241 451.193 179.147C452.278 178.053 453.682 177.506 455.404 177.506C456.872 177.506 458.029 177.802 458.877 178.395C459.725 178.987 460.422 179.803 460.969 180.842C461.525 181.881 461.803 183.28 461.803 185.039C461.803 187.546 461.233 189.446 460.094 190.741C458.954 192.035 457.41 192.682 455.459 192.682C453.645 192.682 452.191 192.08 451.098 190.877C450.004 189.674 449.389 188.024 449.252 185.928H446.271V192.354H443.811V177.834ZM455.541 179.598C454.338 179.598 453.399 180.063 452.725 180.993C452.059 181.913 451.727 183.207 451.727 184.875C451.727 186.871 452.064 188.334 452.738 189.264C453.413 190.194 454.315 190.659 455.445 190.659C456.566 190.659 457.482 190.23 458.193 189.373C458.913 188.508 459.273 187.118 459.273 185.203C459.273 183.335 458.964 181.936 458.344 181.006C457.724 180.067 456.79 179.598 455.541 179.598ZM462.828 177.834H474.627V179.871H469.951V192.354H467.504V179.871H462.828V177.834ZM495.408 171.832L497.582 171.86C497.482 172.835 497.263 173.514 496.926 173.897C496.598 174.28 496.169 174.526 495.641 174.635C495.121 174.745 494.096 174.799 492.564 174.799C490.532 174.799 489.146 174.995 488.408 175.387C487.67 175.779 487.137 176.408 486.809 177.274C486.49 178.131 486.312 179.238 486.275 180.596C486.895 179.675 487.62 178.987 488.449 178.532C489.279 178.067 490.213 177.834 491.252 177.834C493.157 177.834 494.734 178.491 495.982 179.803C497.231 181.106 497.855 182.875 497.855 185.108C497.855 186.803 497.541 188.193 496.912 189.278C496.283 190.362 495.536 191.201 494.67 191.793C493.813 192.386 492.642 192.682 491.156 192.682C489.434 192.682 488.094 192.29 487.137 191.506C486.18 190.713 485.446 189.702 484.936 188.471C484.425 187.241 484.17 185.099 484.17 182.045C484.17 178.208 484.817 175.624 486.111 174.293C487.415 172.963 489.415 172.297 492.113 172.297C493.79 172.297 494.743 172.27 494.971 172.215C495.199 172.161 495.344 172.033 495.408 171.832ZM495.285 185.039C495.285 183.526 494.925 182.287 494.205 181.321C493.494 180.355 492.487 179.871 491.184 179.871C489.826 179.871 488.777 180.382 488.039 181.403C487.301 182.424 486.932 183.786 486.932 185.491C486.932 187.177 487.337 188.467 488.148 189.36C488.969 190.253 489.976 190.7 491.17 190.7C492.391 190.7 493.38 190.185 494.137 189.155C494.902 188.116 495.285 186.744 495.285 185.039ZM500.084 197.946L499.811 195.635C500.348 195.781 500.818 195.854 501.219 195.854C501.766 195.854 502.203 195.763 502.531 195.58C502.859 195.398 503.128 195.143 503.338 194.815C503.493 194.569 503.743 193.958 504.09 192.983C504.135 192.846 504.208 192.646 504.309 192.381L498.799 177.834H501.451L504.473 186.243C504.865 187.309 505.215 188.43 505.525 189.606C505.808 188.476 506.145 187.373 506.537 186.297L509.641 177.834H512.102L506.578 192.6C505.986 194.195 505.525 195.293 505.197 195.895C504.76 196.706 504.258 197.299 503.693 197.672C503.128 198.055 502.454 198.246 501.67 198.246C501.196 198.246 500.667 198.146 500.084 197.946ZM513.934 177.834H517.762L521.576 189.455L525.814 177.834H529.355V192.354H526.895V180.664L522.602 192.354H520.4L516.34 180.104V192.354H513.934V177.834ZM542.59 190.563C541.678 191.338 540.799 191.884 539.951 192.203C539.113 192.523 538.21 192.682 537.244 192.682C535.649 192.682 534.423 192.295 533.566 191.52C532.71 190.736 532.281 189.738 532.281 188.526C532.281 187.815 532.441 187.168 532.76 186.584C533.088 185.992 533.512 185.518 534.031 185.162C534.56 184.807 535.152 184.538 535.809 184.356C536.292 184.228 537.021 184.105 537.996 183.987C539.983 183.75 541.446 183.467 542.385 183.139C542.394 182.802 542.398 182.588 542.398 182.496C542.398 181.494 542.166 180.787 541.701 180.377C541.072 179.821 540.138 179.543 538.898 179.543C537.741 179.543 536.884 179.748 536.328 180.159C535.781 180.56 535.376 181.275 535.111 182.305L532.705 181.977C532.924 180.947 533.284 180.118 533.785 179.489C534.286 178.851 535.011 178.363 535.959 178.026C536.907 177.679 538.005 177.506 539.254 177.506C540.493 177.506 541.501 177.652 542.275 177.944C543.05 178.235 543.62 178.605 543.984 179.051C544.349 179.489 544.604 180.045 544.75 180.719C544.832 181.138 544.873 181.895 544.873 182.989V186.27C544.873 188.558 544.923 190.007 545.023 190.618C545.133 191.219 545.342 191.798 545.652 192.354H543.082C542.827 191.843 542.663 191.246 542.59 190.563ZM542.385 185.067C541.492 185.431 540.152 185.741 538.365 185.996C537.354 186.142 536.638 186.306 536.219 186.489C535.799 186.671 535.476 186.94 535.248 187.295C535.02 187.642 534.906 188.029 534.906 188.457C534.906 189.114 535.152 189.661 535.645 190.098C536.146 190.536 536.875 190.754 537.832 190.754C538.78 190.754 539.623 190.549 540.361 190.139C541.1 189.72 541.642 189.15 541.988 188.43C542.253 187.874 542.385 187.054 542.385 185.969V185.067ZM548.715 177.834H557.068V179.871H551.176V192.354H548.715V177.834ZM558.818 197.946L558.545 195.635C559.083 195.781 559.552 195.854 559.953 195.854C560.5 195.854 560.938 195.763 561.266 195.58C561.594 195.398 561.863 195.143 562.072 194.815C562.227 194.569 562.478 193.958 562.824 192.983C562.87 192.846 562.943 192.646 563.043 192.381L557.533 177.834H560.186L563.207 186.243C563.599 187.309 563.95 188.43 564.26 189.606C564.542 188.476 564.88 187.373 565.271 186.297L568.375 177.834H570.836L565.312 192.6C564.72 194.195 564.26 195.293 563.932 195.895C563.494 196.706 562.993 197.299 562.428 197.672C561.863 198.055 561.188 198.246 560.404 198.246C559.93 198.246 559.402 198.146 558.818 197.946Z" fill="black"/>
<path d="M574.489 545.458L584.653 527.845L588.605 530.128L581.186 542.985L586.648 546.14L590.321 539.776C591.335 538.019 592.39 536.686 593.486 535.776C594.582 534.867 595.943 534.339 597.57 534.193C599.203 534.036 600.796 534.407 602.349 535.304C603.945 536.226 605.072 537.427 605.732 538.908C606.391 540.389 606.624 541.78 606.429 543.082C606.241 544.373 605.584 545.994 604.459 547.944L598.042 559.064L574.489 545.458ZM596.834 552.024L599.505 547.396C600.358 545.918 600.889 544.838 601.095 544.158C601.292 543.471 601.26 542.76 600.999 542.024C600.744 541.277 600.242 540.687 599.493 540.253C598.4 539.622 597.382 539.556 596.438 540.053C595.489 540.534 594.474 541.711 593.392 543.586L590.601 548.423L596.834 552.024ZM593.063 528.268L595.836 523.463L610.305 526.379L600.491 515.396L603.19 510.719L616.132 526.231L618.483 529.025C619.25 529.996 619.791 530.816 620.106 531.483C620.427 532.14 620.612 532.797 620.661 533.454C620.727 534.107 620.654 534.828 620.44 535.619C620.232 536.399 619.881 537.218 619.387 538.075C618.886 538.943 618.304 539.742 617.639 540.472L613.873 538.832C614.42 538.206 614.858 537.608 615.185 537.041C615.791 535.991 615.929 535.034 615.598 534.172C615.278 533.316 614.719 532.478 613.92 531.66L593.063 528.268ZM604.683 508.132L607.91 502.539L622.248 505.165L612.825 494.022L616.043 488.446L633.106 498.302L630.889 502.143L619.659 495.655L628.487 506.305L626.262 510.162L612.741 507.644L623.971 514.131L621.745 517.988L604.683 508.132ZM625.561 483.98L622.457 487.651C621.074 486.237 620.31 484.739 620.167 483.156C620.023 481.574 620.591 479.673 621.871 477.456C623.033 475.442 624.14 474.081 625.191 473.374C626.231 472.66 627.235 472.319 628.202 472.349C629.166 472.363 630.627 472.936 632.588 474.068L637.829 477.16C639.329 478.027 640.478 478.597 641.276 478.873C642.069 479.131 642.987 479.297 644.03 479.371L641.452 483.839C641.084 483.783 640.556 483.671 639.868 483.502C639.557 483.422 639.349 483.374 639.245 483.357C639.55 484.561 639.636 485.711 639.504 486.806C639.372 487.901 639.018 488.947 638.443 489.943C637.429 491.7 636.152 492.812 634.612 493.279C633.077 493.736 631.582 493.543 630.125 492.702C629.161 492.145 628.437 491.42 627.953 490.526C627.459 489.626 627.251 488.649 627.331 487.595C627.406 486.524 627.745 485.12 628.348 483.383C629.169 481.043 629.644 479.367 629.771 478.355L629.321 478.095C628.453 477.594 627.714 477.453 627.102 477.671C626.48 477.883 625.826 478.583 625.14 479.772C624.676 480.576 624.475 481.296 624.537 481.931C624.588 482.561 624.929 483.243 625.561 483.98ZM632.711 480.053C632.57 480.743 632.272 481.792 631.816 483.201C631.361 484.609 631.15 485.58 631.184 486.114C631.262 486.945 631.622 487.546 632.265 487.917C632.897 488.282 633.579 488.362 634.312 488.156C635.044 487.951 635.621 487.484 636.041 486.756C636.511 485.941 636.692 485.01 636.583 483.961C636.491 483.18 636.2 482.533 635.71 482.021C635.392 481.681 634.693 481.198 633.611 480.573L632.711 480.053ZM628.878 466.204L635.527 454.682L639.174 456.788L635.131 463.795L648.546 471.545L645.94 476.06L628.878 466.204ZM644.053 451.935L640.949 455.606C639.565 454.193 638.802 452.695 638.658 451.112C638.515 449.529 639.083 447.629 640.363 445.411C641.525 443.397 642.632 442.036 643.682 441.329C644.723 440.616 645.726 440.274 646.694 440.305C647.658 440.318 649.119 440.891 651.079 442.024L656.321 445.116C657.821 445.982 658.97 446.553 659.768 446.828C660.561 447.087 661.479 447.253 662.522 447.327L659.944 451.794C659.576 451.739 659.048 451.627 658.36 451.458C658.049 451.378 657.841 451.329 657.737 451.312C658.042 452.517 658.128 453.666 657.996 454.761C657.864 455.857 657.51 456.902 656.935 457.899C655.921 459.656 654.644 460.768 653.103 461.235C651.569 461.691 650.073 461.499 648.617 460.657C647.653 460.1 646.929 459.375 646.445 458.481C645.95 457.581 645.743 456.604 645.823 455.551C645.898 454.48 646.237 453.076 646.84 451.338C647.661 448.999 648.136 447.323 648.263 446.311L647.813 446.051C646.945 445.55 646.206 445.408 645.594 445.626C644.972 445.838 644.318 446.539 643.632 447.728C643.168 448.532 642.967 449.251 643.029 449.887C643.08 450.516 643.421 451.199 644.053 451.935ZM651.203 448.009C651.062 448.699 650.763 449.748 650.308 451.156C649.852 452.564 649.642 453.535 649.676 454.07C649.754 454.9 650.114 455.501 650.757 455.872C651.389 456.237 652.071 456.317 652.804 456.112C653.536 455.907 654.113 455.44 654.533 454.711C655.003 453.897 655.183 452.965 655.074 451.917C654.983 451.135 654.692 450.489 654.202 449.977C653.884 449.636 653.184 449.154 652.103 448.529L651.203 448.009Z" fill="black"/>
<path d="M608.656 628.558L614.382 618.635L626.954 625.898L625.724 628.029L614.916 621.785L611.65 627.446L622.458 633.689L621.228 635.821L608.656 628.558ZM622.062 619.851C619.734 618.506 618.383 616.862 618.009 614.92C617.702 613.301 617.997 611.713 618.895 610.158C619.892 608.429 621.276 607.345 623.046 606.904C624.808 606.458 626.687 606.812 628.684 607.966C630.302 608.901 631.435 609.882 632.084 610.909C632.729 611.924 633.04 613.045 633.015 614.273C632.995 615.493 632.669 616.652 632.035 617.749C631.019 619.509 629.633 620.608 627.876 621.046C626.123 621.475 624.185 621.077 622.062 619.851ZM623.326 617.66C624.936 618.59 626.347 618.936 627.557 618.699C628.76 618.457 629.668 617.803 630.283 616.737C630.894 615.679 630.999 614.566 630.6 613.399C630.2 612.231 629.176 611.171 627.526 610.218C625.971 609.32 624.59 608.996 623.383 609.246C622.173 609.483 621.265 610.127 620.659 611.177C620.044 612.243 619.932 613.357 620.324 614.52C620.715 615.683 621.716 616.73 623.326 617.66ZM624.143 589.712L625.253 587.843C626.048 588.418 626.526 588.947 626.689 589.43C626.857 589.906 626.856 590.4 626.686 590.913C626.521 591.417 626.056 592.333 625.291 593.659C624.275 595.419 623.752 596.717 623.722 597.553C623.693 598.388 623.971 599.165 624.557 599.882C625.139 600.587 626.009 601.295 627.167 602.006C626.679 601.008 626.446 600.037 626.466 599.09C626.478 598.139 626.743 597.214 627.263 596.314C628.215 594.664 629.571 593.627 631.332 593.202C633.084 592.772 634.928 593.116 636.861 594.233C638.329 595.081 639.376 596.048 640 597.136C640.625 598.223 640.978 599.29 641.058 600.336C641.143 601.374 640.814 602.537 640.071 603.824C639.21 605.316 638.201 606.28 637.044 606.717C635.879 607.149 634.636 607.279 633.316 607.105C631.995 606.932 630.013 606.081 627.369 604.554C624.047 602.635 622.133 600.782 621.627 598.995C621.126 597.201 621.55 595.135 622.899 592.798C623.737 591.346 624.189 590.507 624.256 590.282C624.322 590.058 624.285 589.868 624.143 589.712ZM635.517 596.425C634.207 595.668 632.954 595.36 631.757 595.5C630.566 595.633 629.644 596.263 628.992 597.392C628.314 598.568 628.232 599.732 628.747 600.882C629.262 602.032 630.257 603.033 631.733 603.885C633.193 604.729 634.512 605.023 635.691 604.767C636.875 604.503 637.765 603.854 638.362 602.82C638.972 601.762 639.02 600.648 638.507 599.478C637.99 598.295 636.993 597.277 635.517 596.425ZM645.373 584.624L646.917 582.579C648.003 583.67 648.63 584.89 648.798 586.239C648.966 587.589 648.629 588.994 647.786 590.455C646.725 592.294 645.318 593.429 643.565 593.858C641.809 594.275 639.909 593.893 637.865 592.713C635.75 591.491 634.422 589.998 633.883 588.234C633.344 586.469 633.575 584.719 634.577 582.982C635.548 581.301 636.912 580.258 638.672 579.853C640.431 579.448 642.349 579.846 644.424 581.045C644.551 581.118 644.738 581.231 644.986 581.385L639.574 590.763C641 591.482 642.283 591.702 643.423 591.424C644.562 591.145 645.435 590.481 646.041 589.431C646.492 588.649 646.672 587.864 646.58 587.074C646.489 586.284 646.086 585.468 645.373 584.624ZM637.89 589.633L641.942 582.611C640.83 582.094 639.882 581.905 639.098 582.041C637.885 582.246 636.967 582.889 636.343 583.971C635.778 584.95 635.63 585.964 635.897 587.013C636.17 588.055 636.834 588.928 637.89 589.633ZM643.895 567.492L649.329 570.631C649.72 569.952 649.866 569.399 649.765 568.973C649.664 568.546 649.139 567.705 648.189 566.452C647.284 565.266 646.78 564.38 646.676 563.794C646.576 563.22 646.769 562.511 647.257 561.666L647.708 560.885L649.472 561.904L649.125 562.477C648.797 563.045 648.67 563.456 648.745 563.71C648.823 563.976 649.194 564.527 649.859 565.364C650.497 566.154 650.897 566.774 651.058 567.225C651.218 567.675 651.265 568.26 651.197 568.979C651.975 568.197 653.347 567.789 655.313 567.756L660.56 567.662L659.207 570.006L653.994 570.042C652.936 570.052 652.184 570.16 651.739 570.366C651.294 570.572 650.932 570.915 650.655 571.397L656.467 574.755L655.21 576.933L649.397 573.576C649.124 574.049 649.009 574.531 649.054 575.019C649.09 575.503 649.372 576.209 649.901 577.135L652.477 581.67L651.124 584.015L648.575 579.432C647.625 577.704 647.294 576.308 647.583 575.243C646.926 575.706 646.355 575.966 645.87 576.022C645.377 576.074 644.338 575.979 642.752 575.737C642.218 575.66 641.842 575.69 641.626 575.828C641.405 575.974 641.178 576.248 640.946 576.651C640.886 576.754 640.77 576.965 640.595 577.285L638.831 576.267L639.002 575.971C639.476 575.149 639.86 574.603 640.154 574.331C640.444 574.046 640.827 573.867 641.301 573.793C641.771 573.707 642.635 573.743 643.891 573.9C645.43 574.095 646.412 574.135 646.835 574.022C647.263 573.901 647.675 573.497 648.071 572.81L642.638 569.671L643.895 567.492ZM649.84 557.19L654.896 548.427L665.717 554.678L666.502 553.316L671.818 556.387L670.807 558.139L667.243 556.081L661.531 565.98L665.094 568.039L664.083 569.791L658.767 566.721L659.416 565.596C658.246 562.92 655.054 560.118 649.84 557.19ZM652.629 556.433C656.618 558.948 659.272 561.323 660.592 563.559L664.494 556.798L655.437 551.566L652.629 556.433ZM672.799 542.87C673.014 544.047 673.048 545.082 672.901 545.976C672.758 546.862 672.445 547.723 671.962 548.56C671.165 549.941 670.217 550.809 669.118 551.164C668.011 551.514 666.932 551.386 665.883 550.779C665.267 550.424 664.787 549.962 664.441 549.394C664.092 548.813 663.893 548.209 663.845 547.581C663.802 546.946 663.865 546.298 664.035 545.639C664.166 545.156 664.424 544.463 664.809 543.559C665.597 541.72 666.083 540.311 666.268 539.334C665.981 539.158 665.798 539.047 665.719 539.001C664.851 538.499 664.123 538.347 663.535 538.545C662.74 538.811 662.032 539.482 661.412 540.555C660.834 541.558 660.583 542.402 660.66 543.089C660.734 543.763 661.151 544.473 661.911 545.217L660.424 547.137C659.642 546.432 659.103 545.705 658.809 544.956C658.507 544.203 658.447 543.332 658.629 542.342C658.803 541.348 659.202 540.31 659.826 539.228C660.446 538.155 661.075 537.355 661.715 536.83C662.355 536.305 662.959 535.996 663.528 535.904C664.089 535.807 664.698 535.864 665.355 536.075C665.759 536.214 666.435 536.557 667.382 537.104L670.223 538.745C672.204 539.889 673.484 540.571 674.063 540.79C674.638 540.996 675.244 541.104 675.88 541.113L674.596 543.339C674.026 543.305 673.427 543.149 672.799 542.87ZM667.938 540.298C667.807 541.254 667.405 542.57 666.734 544.245C666.354 545.194 666.139 545.896 666.087 546.35C666.035 546.804 666.106 547.219 666.3 547.594C666.486 547.965 666.765 548.257 667.136 548.472C667.704 548.8 668.3 548.86 668.925 548.653C669.555 548.437 670.108 547.915 670.587 547.086C671.061 546.265 671.304 545.433 671.318 544.588C671.324 543.739 671.102 542.984 670.652 542.324C670.302 541.817 669.658 541.292 668.719 540.75L667.938 540.298ZM678.323 527.525L679.867 525.48C680.953 526.57 681.58 527.791 681.748 529.14C681.916 530.49 681.579 531.895 680.736 533.356C679.675 535.195 678.268 536.329 676.515 536.759C674.759 537.176 672.859 536.794 670.815 535.613C668.7 534.392 667.372 532.899 666.833 531.134C666.294 529.37 666.525 527.62 667.527 525.883C668.498 524.202 669.862 523.159 671.622 522.754C673.381 522.349 675.299 522.746 677.374 523.945C677.501 524.018 677.688 524.132 677.936 524.286L672.524 533.664C673.95 534.383 675.233 534.603 676.373 534.324C677.512 534.046 678.385 533.382 678.991 532.332C679.442 531.55 679.622 530.764 679.53 529.975C679.439 529.185 679.036 528.369 678.323 527.525ZM670.84 532.533L674.892 525.511C673.78 524.995 672.832 524.806 672.048 524.942C670.835 525.147 669.917 525.79 669.293 526.872C668.728 527.85 668.58 528.865 668.847 529.914C669.12 530.956 669.784 531.829 670.84 532.533ZM671.494 519.665L677.392 509.446L679.155 510.465L676.819 514.514L687.627 520.758L686.404 522.878L675.595 516.634L673.258 520.684L671.494 519.665ZM682.455 500.671L683.685 498.54L689.119 501.679C689.511 501 689.654 500.451 689.548 500.032C689.447 499.605 688.922 498.765 687.972 497.511C687.219 496.518 686.76 495.8 686.595 495.358C686.429 494.915 686.389 494.492 686.475 494.088C686.56 493.685 686.819 493.108 687.252 492.358L687.498 491.932L689.262 492.951L688.908 493.536C688.585 494.097 688.461 494.504 688.535 494.758C688.613 495.024 688.984 495.575 689.649 496.411C690.283 497.209 690.68 497.833 690.841 498.284C691.002 498.735 691.051 499.316 690.988 500.027C691.761 499.252 693.132 498.845 695.103 498.804L700.344 498.721L698.991 501.066L693.784 501.089C692.734 501.104 691.986 501.214 691.541 501.42C691.088 501.621 690.723 501.963 690.445 502.445L696.257 505.802L695.027 507.934L682.455 500.671ZM704.656 487.665C704.871 488.842 704.905 489.878 704.758 490.771C704.615 491.657 704.302 492.519 703.819 493.355C703.022 494.737 702.074 495.605 700.974 495.959C699.868 496.309 698.789 496.181 697.74 495.575C697.124 495.219 696.643 494.757 696.298 494.189C695.949 493.609 695.75 493.005 695.702 492.377C695.658 491.741 695.722 491.094 695.892 490.434C696.023 489.952 696.281 489.259 696.666 488.355C697.453 486.515 697.94 485.107 698.125 484.13C697.838 483.953 697.654 483.842 697.575 483.796C696.707 483.295 695.98 483.143 695.392 483.34C694.596 483.607 693.889 484.277 693.269 485.351C692.691 486.353 692.44 487.198 692.517 487.885C692.591 488.559 693.008 489.268 693.768 490.012L692.281 491.932C691.498 491.227 690.96 490.501 690.666 489.752C690.364 488.999 690.304 488.127 690.486 487.137C690.66 486.143 691.059 485.105 691.683 484.024C692.302 482.95 692.932 482.151 693.572 481.626C694.212 481.101 694.816 480.792 695.385 480.699C695.946 480.603 696.555 480.66 697.212 480.871C697.616 481.009 698.291 481.352 699.238 481.899L702.08 483.541C704.061 484.685 705.341 485.366 705.919 485.585C706.495 485.791 707.101 485.899 707.737 485.909L706.453 488.135C705.883 488.101 705.284 487.944 704.656 487.665ZM699.794 485.094C699.663 486.05 699.262 487.365 698.59 489.04C698.211 489.989 697.995 490.691 697.944 491.146C697.892 491.6 697.963 492.015 698.157 492.39C698.343 492.76 698.621 493.053 698.992 493.267C699.561 493.595 700.157 493.656 700.782 493.448C701.411 493.233 701.965 492.711 702.443 491.882C702.917 491.061 703.161 490.228 703.175 489.384C703.181 488.534 702.959 487.78 702.508 487.12C702.159 486.613 701.515 486.088 700.576 485.545L699.794 485.094ZM696.723 475.946L698.636 472.631L710.605 475.14L702.661 465.656L704.431 462.589L717.003 469.852L715.773 471.983L705.651 466.136L713.627 475.702L712.527 477.608L699.891 474.997L710.498 481.125L709.295 483.209L696.723 475.946ZM719.801 455.648L721.345 453.603C722.431 454.693 723.058 455.913 723.226 457.263C723.394 458.613 723.057 460.018 722.214 461.478C721.153 463.318 719.746 464.452 717.993 464.882C716.237 465.299 714.337 464.917 712.293 463.736C710.178 462.514 708.85 461.021 708.311 459.257C707.772 457.493 708.003 455.743 709.005 454.006C709.976 452.324 711.34 451.281 713.1 450.877C714.859 450.472 716.777 450.869 718.852 452.068C718.979 452.141 719.166 452.255 719.414 452.408L714.002 461.787C715.428 462.506 716.711 462.726 717.851 462.447C718.99 462.169 719.863 461.504 720.469 460.454C720.92 459.673 721.1 458.887 721.008 458.098C720.917 457.308 720.514 456.491 719.801 455.648ZM712.318 460.656L716.37 453.634C715.258 453.118 714.31 452.928 713.526 453.065C712.313 453.27 711.395 453.913 710.771 454.994C710.206 455.973 710.058 456.987 710.325 458.037C710.598 459.078 711.262 459.951 712.318 460.656ZM714.107 445.822L715.337 443.69L720.569 446.713L723.979 440.804L718.747 437.782L719.977 435.65L732.549 442.913L731.319 445.044L725.743 441.823L722.333 447.732L727.909 450.953L726.679 453.084L714.107 445.822ZM721.815 432.465L723.045 430.333L727.958 433.171L729.516 430.472C730.531 428.711 731.656 427.556 732.889 427.005C734.119 426.442 735.334 426.507 736.534 427.2C737.583 427.806 738.253 428.724 738.543 429.955C738.829 431.173 738.469 432.654 737.462 434.399L734.387 439.727L721.815 432.465ZM733.865 436.584L735.156 434.346C735.935 432.996 736.325 431.937 736.326 431.169C736.328 430.402 735.977 429.815 735.274 429.409C734.73 429.094 734.122 429.027 733.449 429.207C732.777 429.387 732.02 430.208 731.177 431.668L729.721 434.19L733.865 436.584Z" fill="black"/>
<path d="M259.385 432.203L262.13 436.96L252.104 442.751C252.823 443.75 253.511 444.31 254.166 444.431C254.822 444.552 256.377 444.425 258.831 444.05C261.949 443.564 264.106 443.639 265.302 444.276C266.492 444.903 267.721 446.315 268.988 448.511C269.05 448.618 269.188 448.845 269.403 449.193L265.885 451.225L265.511 450.541C264.949 449.566 264.414 448.925 263.908 448.617C263.413 448.303 262.839 448.149 262.185 448.155C261.532 448.161 260.282 448.334 258.435 448.672C257.454 448.853 256.591 448.93 255.847 448.903C255.109 448.886 254.252 448.588 253.275 448.01C253.587 449.244 253.486 450.466 252.971 451.678C252.463 452.9 251.616 454.403 250.432 456.187L245.828 463.132L242.601 457.54L247.067 451.21C247.128 451.118 247.242 450.931 247.408 450.649C247.463 450.546 247.718 450.135 248.173 449.414C248.978 448.135 249.41 447.214 249.47 446.651C249.537 446.098 249.344 445.417 248.891 444.607L238.576 450.565L235.831 445.809L259.385 432.203ZM261.404 462.727L259.778 458.202C261.694 457.71 263.372 457.798 264.814 458.465C266.256 459.132 267.617 460.574 268.896 462.792C270.059 464.806 270.683 466.445 270.77 467.709C270.867 468.967 270.661 470.008 270.151 470.831C269.657 471.659 268.431 472.639 266.471 473.771L261.173 476.767C259.673 477.634 258.605 478.344 257.968 478.897C257.347 479.456 256.745 480.168 256.159 481.035L253.581 476.567C253.813 476.276 254.174 475.875 254.664 475.363C254.889 475.133 255.035 474.978 255.102 474.896C253.907 474.558 252.869 474.058 251.987 473.396C251.105 472.734 250.376 471.905 249.802 470.908C248.788 469.151 248.464 467.489 248.83 465.92C249.202 464.362 250.116 463.163 251.573 462.321C252.537 461.764 253.526 461.5 254.542 461.527C255.568 461.549 256.518 461.857 257.39 462.453C258.279 463.054 259.325 464.05 260.528 465.441C262.142 467.322 263.355 468.571 264.168 469.188L264.618 468.928C265.485 468.426 265.978 467.856 266.095 467.218C266.222 466.572 265.943 465.655 265.257 464.466C264.793 463.663 264.271 463.129 263.69 462.864C263.119 462.594 262.357 462.548 261.404 462.727ZM261.228 470.886C260.701 470.419 259.942 469.636 258.951 468.537C257.96 467.438 257.225 466.77 256.745 466.533C255.987 466.185 255.287 466.197 254.645 466.568C254.013 466.933 253.602 467.484 253.414 468.222C253.225 468.959 253.341 469.692 253.762 470.421C254.231 471.235 254.947 471.857 255.91 472.287C256.632 472.598 257.337 472.669 258.025 472.5C258.479 472.395 259.246 472.031 260.328 471.406L261.228 470.886ZM275.308 474.794L278.536 480.387L269.095 491.497L283.451 488.904L286.669 494.481L269.606 504.337L267.39 500.496L278.62 494.009L264.988 496.334L262.762 492.477L271.702 482.02L260.472 488.508L258.246 484.651L275.308 474.794ZM283.364 515.631L285.206 520.567C283.223 520.942 281.436 520.753 279.845 520C278.271 519.253 276.943 517.941 275.861 516.066C274.148 513.099 273.85 510.342 274.966 507.798C275.87 505.775 277.506 504.081 279.873 502.713C282.701 501.08 285.339 500.541 287.788 501.098C290.248 501.648 292.13 503.054 293.435 505.314C294.9 507.854 295.215 510.343 294.381 512.782C293.557 515.215 291.396 517.399 287.9 519.333L281.371 508.019C280.051 508.825 279.217 509.792 278.869 510.922C278.531 512.045 278.663 513.126 279.262 514.166C279.67 514.873 280.206 515.356 280.87 515.615C281.534 515.875 282.365 515.88 283.364 515.631ZM288.076 513.253C289.364 512.466 290.16 511.556 290.464 510.523C290.778 509.485 290.67 508.504 290.138 507.583C289.569 506.597 288.74 505.99 287.652 505.762C286.563 505.534 285.406 505.781 284.181 506.503L288.076 513.253ZM299.763 517.172L302.369 521.688L296.119 525.298L299.847 531.759L306.097 528.148L308.712 532.68L291.65 542.537L289.035 538.005L296.2 533.865L292.472 527.405L285.307 531.544L282.701 527.029L299.763 517.172ZM311.402 537.341L314.008 541.856L306.922 545.949L309.538 550.481C310.564 552.26 311.224 553.7 311.517 554.802C311.81 555.904 311.71 557.018 311.218 558.146C310.737 559.266 309.934 560.152 308.809 560.801C307.16 561.754 305.59 561.904 304.099 561.251C302.625 560.603 301.236 559.148 299.931 556.887L294.339 547.197L311.402 537.341ZM299.805 550.061L302.235 554.271C302.995 555.589 303.695 556.306 304.333 556.423C304.978 556.551 305.595 556.444 306.184 556.104C307.009 555.627 307.391 554.978 307.331 554.156C307.277 553.344 306.78 552.124 305.84 550.496L304.143 547.555L299.805 550.061Z" fill="black"/>
<path d="M166.197 413.025L171.923 422.948L159.351 430.21L158.121 428.079L168.929 421.835L165.663 416.175L154.855 422.419L153.625 420.287L166.197 413.025ZM167.031 428.995C169.359 427.65 171.457 427.301 173.325 427.948C174.881 428.492 176.107 429.541 177.004 431.096C178.002 432.825 178.249 434.566 177.746 436.32C177.251 438.069 176.005 439.521 174.008 440.674C172.39 441.609 170.974 442.1 169.76 442.149C168.559 442.201 167.433 441.909 166.383 441.274C165.337 440.647 164.497 439.784 163.864 438.687C162.848 436.927 162.59 435.176 163.09 433.434C163.594 431.701 164.908 430.221 167.031 428.995ZM168.295 431.185C166.685 432.115 165.681 433.164 165.281 434.332C164.889 435.495 165.001 436.609 165.616 437.675C166.226 438.733 167.137 439.38 168.347 439.618C169.558 439.856 170.988 439.498 172.637 438.545C174.192 437.647 175.163 436.612 175.55 435.441C175.95 434.274 175.846 433.165 175.24 432.115C174.625 431.049 173.717 430.395 172.514 430.153C171.312 429.911 169.905 430.255 168.295 431.185ZM192.078 445.866L193.141 447.763C192.247 448.164 191.549 448.314 191.049 448.213C190.554 448.121 190.127 447.873 189.768 447.469C189.413 447.074 188.853 446.213 188.088 444.887C187.072 443.127 186.21 442.025 185.502 441.581C184.793 441.138 183.982 440.991 183.069 441.14C182.167 441.292 181.12 441.692 179.925 442.34C181.032 442.416 181.99 442.699 182.799 443.19C183.617 443.676 184.285 444.369 184.804 445.269C185.756 446.919 185.976 448.612 185.464 450.35C184.959 452.084 183.74 453.509 181.807 454.626C180.339 455.474 178.978 455.897 177.724 455.895C176.471 455.893 175.371 455.665 174.425 455.211C173.484 454.765 172.642 453.899 171.9 452.612C171.039 451.12 170.709 449.764 170.909 448.543C171.117 447.317 171.627 446.176 172.437 445.118C173.247 444.061 174.974 442.768 177.618 441.241C180.941 439.322 183.502 438.59 185.301 439.045C187.105 439.508 188.681 440.908 190.029 443.245C190.867 444.698 191.367 445.509 191.528 445.679C191.689 445.849 191.873 445.911 192.078 445.866ZM180.581 452.366C181.891 451.609 182.785 450.677 183.261 449.57C183.743 448.471 183.657 447.357 183.006 446.228C182.327 445.052 181.361 444.4 180.108 444.271C178.856 444.142 177.491 444.504 176.015 445.356C174.555 446.2 173.641 447.196 173.273 448.346C172.91 449.503 173.026 450.599 173.623 451.633C174.234 452.691 175.174 453.289 176.444 453.43C177.726 453.573 179.105 453.218 180.581 452.366ZM185.868 466.806L186.866 469.166C185.379 469.561 184.01 469.495 182.757 468.966C181.505 468.437 180.457 467.442 179.615 465.981C178.553 464.142 178.275 462.356 178.779 460.622C179.296 458.892 180.577 457.437 182.621 456.256C184.736 455.034 186.692 454.63 188.488 455.045C190.285 455.46 191.685 456.535 192.687 458.272C193.657 459.954 193.878 461.658 193.348 463.384C192.819 465.111 191.516 466.574 189.441 467.773C189.314 467.846 189.123 467.952 188.866 468.09L183.454 458.711C182.118 459.588 181.286 460.59 180.957 461.716C180.629 462.843 180.768 463.931 181.373 464.981C181.824 465.763 182.415 466.311 183.144 466.627C183.873 466.942 184.781 467.002 185.868 466.806ZM185.274 457.818L189.326 464.84C190.329 464.134 190.967 463.407 191.241 462.66C191.67 461.507 191.572 460.389 190.948 459.308C190.383 458.329 189.58 457.693 188.538 457.401C187.5 457.116 186.412 457.255 185.274 457.818ZM201.436 474.091L196.002 477.229C196.394 477.908 196.8 478.311 197.22 478.437C197.64 478.562 198.63 478.527 200.19 478.331C201.669 478.14 202.688 478.146 203.247 478.35C203.794 478.55 204.311 479.072 204.798 479.916L205.249 480.698L203.485 481.717L203.162 481.13C202.834 480.562 202.542 480.246 202.285 480.184C202.016 480.119 201.353 480.165 200.297 480.322C199.294 480.48 198.557 480.517 198.086 480.431C197.616 480.345 197.086 480.093 196.498 479.675C196.786 480.74 196.453 482.132 195.499 483.852L192.957 488.446L191.604 486.102L194.18 481.566C194.701 480.645 194.983 479.939 195.027 479.451C195.071 478.962 194.954 478.477 194.677 477.995L188.864 481.353L187.607 479.174L193.419 475.817C193.146 475.343 192.787 475.003 192.342 474.797C191.904 474.586 191.153 474.479 190.087 474.473L184.873 474.438L183.52 472.093L188.761 472.176C190.732 472.217 192.106 472.628 192.883 473.411C192.811 472.61 192.871 471.986 193.065 471.537C193.266 471.084 193.869 470.231 194.871 468.978C195.205 468.554 195.366 468.213 195.355 467.956C195.339 467.692 195.215 467.358 194.983 466.956C194.924 466.853 194.799 466.646 194.609 466.335L196.373 465.316L196.544 465.612C197.017 466.433 197.299 467.039 197.387 467.43C197.489 467.824 197.453 468.245 197.279 468.692C197.118 469.143 196.656 469.873 195.892 470.883C194.953 472.12 194.427 472.95 194.314 473.373C194.205 473.805 194.349 474.364 194.745 475.051L200.179 471.912L201.436 474.091ZM207.381 484.393L212.438 493.155L201.618 499.406L202.403 500.767L197.088 503.838L196.077 502.085L199.64 500.027L193.927 490.128L190.364 492.186L189.353 490.433L194.668 487.363L195.317 488.488C198.219 488.812 202.24 487.446 207.381 484.393ZM206.642 487.188C202.471 489.387 199.088 490.499 196.493 490.525L200.394 497.286L209.451 492.055L206.642 487.188ZM208.297 511.446C207.171 511.044 206.258 510.556 205.558 509.981C204.863 509.415 204.274 508.713 203.791 507.876C202.993 506.495 202.716 505.239 202.959 504.11C203.209 502.975 203.859 502.105 204.909 501.499C205.525 501.143 206.165 500.958 206.829 500.942C207.506 500.93 208.128 501.06 208.696 501.332C209.268 501.612 209.797 501.991 210.283 502.468C210.635 502.823 211.106 503.393 211.696 504.178C212.894 505.781 213.87 506.906 214.623 507.555C214.92 507.394 215.107 507.291 215.186 507.246C216.055 506.744 216.55 506.189 216.673 505.582C216.84 504.759 216.614 503.811 215.994 502.737C215.416 501.735 214.81 501.095 214.177 500.819C213.556 500.546 212.734 500.552 211.71 500.838L210.791 498.59C211.793 498.264 212.691 498.161 213.486 498.281C214.289 498.396 215.073 498.78 215.839 499.432C216.613 500.08 217.312 500.944 217.936 502.026C218.555 503.1 218.932 504.045 219.067 504.862C219.202 505.679 219.167 506.357 218.962 506.896C218.766 507.43 218.412 507.93 217.901 508.393C217.579 508.674 216.944 509.088 215.997 509.635L213.156 511.276C211.175 512.421 209.945 513.189 209.466 513.581C209 513.977 208.604 514.448 208.277 514.995L206.993 512.768C207.307 512.292 207.742 511.851 208.297 511.446ZM212.954 508.519C212.192 507.928 211.254 506.923 210.14 505.503C209.508 504.7 209.008 504.162 208.641 503.89C208.274 503.618 207.879 503.472 207.457 503.453C207.044 503.429 206.651 503.524 206.28 503.738C205.712 504.066 205.361 504.553 205.229 505.198C205.1 505.851 205.275 506.592 205.754 507.421C206.227 508.242 206.826 508.87 207.551 509.304C208.283 509.734 209.047 509.919 209.844 509.858C210.457 509.809 211.233 509.513 212.173 508.971L212.954 508.519ZM218.818 523.905L219.816 526.265C218.329 526.661 216.96 526.594 215.707 526.065C214.455 525.536 213.407 524.541 212.565 523.081C211.503 521.241 211.225 519.455 211.729 517.721C212.246 515.991 213.527 514.536 215.571 513.355C217.686 512.133 219.642 511.729 221.438 512.144C223.235 512.559 224.635 513.635 225.637 515.371C226.607 517.053 226.828 518.757 226.298 520.484C225.769 522.21 224.466 523.673 222.391 524.872C222.264 524.945 222.073 525.051 221.816 525.189L216.404 515.81C215.068 516.687 214.236 517.689 213.907 518.815C213.579 519.942 213.718 521.03 214.324 522.08C214.775 522.862 215.365 523.41 216.094 523.726C216.823 524.041 217.731 524.101 218.818 523.905ZM218.224 514.917L222.276 521.939C223.279 521.233 223.917 520.506 224.191 519.759C224.62 518.606 224.522 517.489 223.898 516.407C223.334 515.428 222.53 514.792 221.488 514.5C220.45 514.215 219.362 514.354 218.224 514.917ZM229.036 521.918L234.933 532.137L233.169 533.156L230.832 529.106L220.024 535.35L218.801 533.23L229.609 526.987L227.272 522.937L229.036 521.918ZM240.01 540.935L241.24 543.067L236.007 546.089L239.417 551.998L244.65 548.975L245.88 551.107L233.308 558.369L232.078 556.238L237.653 553.017L234.244 547.108L228.668 550.329L227.438 548.198L240.01 540.935ZM240.995 557.166C243.323 555.821 245.421 555.472 247.288 556.119C248.844 556.663 250.07 557.712 250.968 559.267C251.965 560.996 252.213 562.737 251.709 564.491C251.214 566.24 249.968 567.692 247.971 568.845C246.353 569.78 244.937 570.271 243.724 570.32C242.522 570.372 241.397 570.08 240.346 569.445C239.3 568.818 238.46 567.955 237.827 566.858C236.811 565.098 236.553 563.347 237.053 561.605C237.558 559.872 238.871 558.392 240.995 557.166ZM242.259 559.356C240.649 560.286 239.644 561.335 239.244 562.503C238.853 563.666 238.964 564.78 239.579 565.846C240.19 566.904 241.1 567.552 242.311 567.789C243.521 568.027 244.951 567.669 246.6 566.716C248.155 565.818 249.126 564.783 249.513 563.613C249.913 562.445 249.81 561.336 249.204 560.286C248.589 559.22 247.68 558.567 246.477 558.324C245.275 558.082 243.869 558.426 242.259 559.356ZM259.751 575.145L254.318 578.284C254.709 578.963 255.115 579.365 255.535 579.491C255.955 579.617 256.945 579.582 258.505 579.386C259.984 579.195 261.003 579.201 261.562 579.404C262.109 579.604 262.626 580.126 263.113 580.971L263.564 581.752L261.8 582.771L261.477 582.184C261.149 581.616 260.857 581.301 260.6 581.238C260.331 581.173 259.668 581.219 258.612 581.376C257.609 581.535 256.872 581.571 256.402 581.485C255.931 581.399 255.402 581.147 254.813 580.729C255.101 581.794 254.768 583.186 253.814 584.906L251.272 589.5L249.919 587.156L252.495 582.621C253.016 581.699 253.298 580.994 253.342 580.505C253.386 580.016 253.27 579.531 252.992 579.05L247.179 582.407L245.922 580.229L251.734 576.871C251.461 576.397 251.102 576.057 250.657 575.851C250.22 575.641 249.468 575.533 248.402 575.528L243.188 575.492L241.835 573.148L247.076 573.23C249.047 573.271 250.421 573.683 251.198 574.465C251.126 573.665 251.186 573.04 251.38 572.592C251.582 572.138 252.184 571.285 253.186 570.032C253.52 569.608 253.682 569.267 253.67 569.011C253.654 568.746 253.53 568.413 253.298 568.01C253.239 567.908 253.114 567.701 252.924 567.389L254.688 566.37L254.859 566.666C255.333 567.487 255.614 568.093 255.702 568.484C255.804 568.878 255.768 569.299 255.594 569.747C255.434 570.197 254.971 570.928 254.207 571.938C253.268 573.174 252.743 574.004 252.629 574.428C252.52 574.859 252.664 575.418 253.06 576.105L258.494 572.966L259.751 575.145ZM264.733 583.777L265.963 585.909L260.73 588.931L264.14 594.84L269.373 591.818L270.603 593.949L258.03 601.212L256.8 599.08L262.376 595.859L258.966 589.95L253.391 593.171L252.161 591.04L264.733 583.777ZM272.461 597.17L273.691 599.301L264.102 604.841L277.101 605.21L278.427 607.507L265.854 614.77L264.624 612.639L274.154 607.133L261.215 606.73L259.889 604.432L272.461 597.17ZM280.299 610.752L281.529 612.883L270.709 619.134L274.112 625.031L284.932 618.78L286.162 620.912L275.342 627.162L276.134 628.536L270.819 631.606L269.808 629.854L273.371 627.796L267.727 618.015L280.299 610.752ZM295.209 636.59L296.439 638.721L283.867 645.984L282.637 643.852L295.209 636.59ZM288.328 624.666L289.558 626.797L284.645 629.635L286.203 632.335C287.219 634.095 287.657 635.647 287.517 636.991C287.39 638.339 286.726 639.359 285.526 640.052C284.477 640.658 283.347 640.779 282.137 640.415C280.94 640.054 279.838 639.001 278.831 637.257L275.756 631.928L288.328 624.666ZM278.738 633.047L280.029 635.286C280.808 636.635 281.53 637.503 282.194 637.888C282.858 638.272 283.541 638.262 284.244 637.856C284.788 637.542 285.15 637.048 285.331 636.376C285.511 635.703 285.18 634.637 284.337 633.176L282.881 630.654L278.738 633.047Z" fill="black"/>
</svg>
