<svg width="229" height="229" viewBox="0 0 229 229" fill="none" xmlns="http://www.w3.org/2000/svg">
<path d="M114.627 227.503C177.037 227.503 227.631 176.883 227.631 114.441C227.631 51.9983 177.037 1.37854 114.627 1.37854C52.2169 1.37854 1.62354 51.9983 1.62354 114.441C1.62354 176.883 52.2169 227.503 114.627 227.503Z" fill="#000080" stroke="white" stroke-width="2.5"/>
<path d="M168.213 46.7858C168.03 45.327 168.213 43.8681 167.666 42.5916C165.843 38.3973 162.016 37.1208 157.459 38.9444C151.991 41.1327 147.252 44.4152 142.878 48.0623C136.134 53.7155 129.573 59.7333 123.011 65.3864C120.459 67.5747 117.726 69.5807 115.174 71.769C114.809 68.3041 113.169 67.0276 110.07 67.7571C107.883 68.1218 105.878 69.0336 103.691 69.763C100.046 71.0395 96.4007 72.6807 92.5731 73.4102C88.0166 74.1396 84.7358 76.3279 82.1841 80.1574C77.4452 87.2694 71.9774 93.8343 66.3272 100.035C65.5981 100.764 65.0513 101.858 64.6868 102.952C62.3173 109.882 59.9479 116.629 57.7608 123.559C55.7559 129.394 52.8396 135.047 53.0219 141.612C53.0219 142.159 52.2929 142.889 51.7461 143.071C48.8299 144.712 45.7313 146.171 42.8151 147.63C42.4506 147.812 42.0861 148.36 41.9038 148.724C42.4506 148.724 42.9974 148.907 43.362 148.724C46.2782 147.265 49.0121 145.807 51.9283 144.348C53.5687 143.618 54.2978 142.524 54.48 140.7C54.6623 138.512 54.6623 136.324 55.2091 134.5C58.6721 123.924 62.3174 113.529 65.9626 103.135C66.1449 102.405 66.5094 101.676 67.0562 101.129C73.4355 94.1991 79.2679 86.9047 84.5536 79.2457C86.1939 76.6926 88.5633 75.2338 91.4796 74.869C96.2184 74.1396 100.775 72.6808 105.149 70.4924C106.79 69.5807 108.795 69.2159 110.8 68.8512C111.893 68.6689 113.351 68.6689 114.08 69.9454C114.809 71.4042 114.445 72.8631 112.987 73.9573C112.258 74.5043 111.711 75.2338 110.982 75.5985C102.962 81.0692 94.9426 86.54 87.1052 92.1931C81.4551 96.205 75.8049 100.582 70.337 104.958C69.9724 105.323 69.6079 105.87 69.2434 106.235C69.4256 106.417 69.4256 106.599 69.6079 106.599C69.9724 106.417 70.5193 106.052 70.8838 105.87C71.9774 104.958 73.0709 103.864 74.1645 102.952C82.0018 97.4815 89.6569 91.8284 97.4942 86.7223C107.883 79.7927 117.179 71.9513 126.656 63.9275C129.755 61.1922 133.036 58.4568 136.134 55.7214C138.139 54.0802 140.144 52.439 141.967 50.6154C146.341 46.4211 151.444 43.321 156.73 40.4033C158.006 39.6738 159.464 39.3091 160.922 38.9444C163.109 38.3973 164.932 39.1268 166.39 40.768C167.848 42.4092 168.395 44.4152 167.301 46.4211C166.754 47.3329 166.025 48.4271 165.296 49.1565C155.09 58.6391 144.336 67.7571 134.676 77.9691C131.213 81.7987 127.021 84.8988 123.011 88.3636C122.829 88.5459 122.647 88.9107 122.464 89.2754C122.647 89.4577 122.647 89.4577 122.829 89.6401C123.558 89.2754 124.287 89.093 124.652 88.5459C128.297 85.2635 132.307 82.1634 135.77 78.5162C147.981 65.7511 161.469 54.2625 174.956 42.7739C176.597 41.3151 178.602 40.768 180.606 40.768C184.799 40.5856 187.533 45.6917 185.71 49.7036C184.981 51.3448 183.887 52.8037 182.611 54.0802C179.331 57.9097 176.05 61.5569 172.769 65.204C163.291 75.7808 154.178 86.54 143.06 95.4756C141.42 96.7521 140.326 98.5757 138.868 100.035C138.504 100.582 138.321 101.129 138.139 101.676C138.321 101.858 138.504 101.858 138.504 102.04C138.868 101.858 139.233 101.493 139.415 101.311C141.055 99.4874 142.513 97.2991 144.336 95.6579C152.173 89.4577 158.735 81.981 165.479 74.6867C170.4 69.3983 174.956 63.9275 179.695 58.6391C181.153 56.9979 183.158 56.4508 184.981 57.3626C188.444 59.0039 189.902 64.1099 187.715 67.21C182.611 75.0514 177.508 82.7105 171.676 90.1872C166.937 96.205 162.198 102.04 156.365 107.147C154.543 108.788 152.72 110.611 151.262 112.435C148.893 115.535 146.888 119 144.701 122.282C144.518 122.647 144.518 123.194 144.518 123.559C144.883 123.376 145.247 123.194 145.612 122.829C145.976 122.282 146.341 121.735 146.705 121.188C149.622 116.264 153.085 111.888 157.094 107.876C163.656 101.311 170.035 94.7461 176.597 87.9989C177.69 86.9047 178.602 85.6282 179.695 84.7164C181.336 83.2575 183.887 83.4399 184.799 84.8988C185.892 86.54 186.803 88.5459 186.074 90.3695C185.163 93.1049 184.07 95.6579 182.611 98.0286C178.237 105.505 172.405 111.888 166.754 118.453C160.011 126.112 153.085 133.771 148.164 142.706C147.252 144.348 145.976 145.989 144.518 147.265C135.952 154.924 127.385 162.583 118.637 170.06C110.07 177.172 100.957 183.555 90.2037 187.202C87.8343 187.931 85.4649 189.208 83.2777 190.302C83.2777 190.484 83.46 190.667 83.46 190.849C84.189 190.667 84.918 190.667 85.6471 190.484C88.3811 189.208 91.115 187.749 94.0312 186.837C100.41 184.649 106.061 181.184 111.346 177.172C122.1 169.331 131.942 160.395 141.784 151.642C145.976 147.812 149.439 143.436 152.538 138.512C154.725 135.047 157.094 131.947 159.646 128.847C164.02 123.376 168.759 118.27 173.316 112.982C178.055 107.511 182.611 101.858 185.892 95.4756C186.621 93.8343 187.35 92.1931 187.715 90.3695C188.262 87.6341 186.621 83.8046 184.616 82.8928C182.429 81.7987 180.06 82.7105 177.69 85.2635C176.961 86.1753 176.05 87.0871 175.321 87.9989C175.139 87.6341 175.321 87.4518 175.321 87.2694C179.877 80.8869 184.252 74.322 188.808 67.9394C190.084 66.1158 190.449 64.1099 189.72 61.9216C188.626 58.4568 186.621 55.9038 182.429 55.7214C182.976 55.1743 183.34 54.8096 183.523 54.2625C184.616 52.439 186.074 50.7977 186.621 48.9741C188.444 43.321 184.07 38.3973 178.237 39.6739C176.414 40.0386 174.774 41.1327 173.134 42.2269C170.947 44.2328 169.671 45.5093 168.213 46.7858Z" stroke="white" stroke-width="2.5"/>
<path d="M168.213 46.7858C169.488 45.6917 170.946 44.2328 172.587 43.1386C174.227 42.0445 175.868 40.9503 177.69 40.5856C183.34 39.3091 187.897 44.2328 186.074 49.8859C185.345 51.7095 184.069 53.3507 182.976 55.1743C182.611 55.539 182.247 56.0861 181.882 56.6332C186.074 56.8155 188.079 59.3686 189.173 62.8334C189.902 65.0217 189.537 67.0276 188.262 68.8512C183.705 75.2337 179.331 81.7987 174.774 88.1812C174.592 88.3636 174.592 88.5459 174.774 88.9106C175.503 87.9988 176.414 87.0871 177.143 86.1753C179.513 83.6222 181.882 82.7104 184.069 83.8046C186.074 84.7164 187.715 88.5459 187.168 91.2813C186.803 92.9225 186.074 94.7461 185.345 96.3873C182.065 102.952 177.508 108.423 172.769 113.894C168.213 119.182 163.474 124.471 159.099 129.759C156.548 132.859 154.178 136.141 151.991 139.424C149.075 144.348 145.612 148.724 141.237 152.554C131.395 161.489 121.553 170.243 110.799 178.084C105.332 182.096 99.8636 185.561 93.4844 187.749C90.5682 188.843 87.8342 190.302 85.1003 191.396C84.3712 191.578 83.6421 191.578 82.9131 191.761C82.9131 191.578 82.7309 191.396 82.7309 191.214C85.1003 190.12 87.2874 188.843 89.6569 188.114C100.41 184.466 109.524 178.266 118.09 170.972C126.839 163.495 135.405 155.836 143.971 148.177C145.43 146.901 146.705 145.259 147.617 143.618C152.72 134.683 159.646 127.024 166.208 119.365C171.858 112.8 177.69 106.417 182.065 98.9404C183.523 96.5697 184.616 93.8343 185.528 91.2813C186.257 89.2753 185.345 87.4518 184.252 85.8105C183.158 84.1693 180.789 83.987 179.148 85.6282C178.055 86.54 177.143 87.8165 176.05 88.9106C169.488 95.4755 163.109 102.223 156.548 108.788C152.538 112.8 149.075 117.176 146.159 122.1C145.794 122.647 145.612 123.376 145.065 123.741C144.883 124.106 144.336 124.288 143.971 124.471C143.971 124.106 143.971 123.559 144.154 123.194C146.341 119.912 148.346 116.447 150.715 113.347C152.173 111.341 153.996 109.517 155.819 108.058C161.469 102.952 166.39 97.2991 171.129 91.0989C176.779 83.6222 182.065 75.9632 187.168 68.1218C189.173 65.0217 187.715 59.9156 184.434 58.2744C182.611 57.3626 180.789 57.7273 179.148 59.5509C174.409 64.8393 169.853 70.3101 164.932 75.5985C158.188 82.8928 151.627 90.3695 143.789 96.5697C141.784 98.0286 140.508 100.217 138.868 102.223C138.686 102.588 138.321 102.77 137.957 102.952C137.774 102.77 137.592 102.77 137.592 102.588C137.774 102.04 137.957 101.311 138.321 100.946C139.597 99.3051 140.873 97.6638 142.513 96.3873C153.449 87.4518 162.745 76.6926 172.222 66.1158C175.503 62.4687 178.784 58.6391 182.065 54.992C183.158 53.7154 184.252 52.2566 185.163 50.6153C187.168 46.4211 184.252 41.4974 180.06 41.6798C178.055 41.6798 176.05 42.4092 174.409 43.6857C160.375 54.6272 147.07 66.2982 134.858 79.0633C131.395 82.7104 127.568 85.8105 123.74 89.093C123.193 89.6401 122.464 89.8224 121.918 90.1871C121.735 90.0048 121.735 90.0048 121.553 89.8224C121.735 89.4577 121.918 89.093 122.1 88.9106C125.927 85.4458 130.119 82.3457 133.765 78.5162C143.425 68.3041 154.178 59.3686 164.385 49.7036C165.296 48.9741 165.843 47.88 166.39 46.9682C167.483 44.9622 166.937 42.9563 165.479 41.3151C164.02 39.6738 162.198 38.9444 160.011 39.4915C158.553 39.8562 157.094 40.2209 155.819 40.9503C150.533 43.6857 145.43 46.9682 141.055 51.1624C139.233 52.986 137.228 54.4449 135.223 56.2685C132.124 59.0038 128.844 61.7392 125.745 64.4746C116.45 72.4984 106.972 80.5221 96.5829 87.2694C88.7455 92.5578 81.0905 98.0286 73.2531 103.499C72.1595 104.411 71.066 105.323 69.9724 106.417C69.6079 106.782 69.0611 106.964 68.6965 107.146C68.5143 106.964 68.5143 106.782 68.332 106.782C68.6965 106.235 69.0611 105.688 69.4256 105.505C75.0758 101.311 80.5437 96.9344 86.1939 92.7402C94.0312 87.087 102.051 81.6163 110.07 76.1455C110.799 75.5985 111.528 75.0514 112.075 74.5043C113.351 73.4102 113.898 71.9513 113.169 70.4924C112.44 69.2159 111.164 69.2159 109.888 69.3983C108.066 69.763 106.061 70.3101 104.238 71.0395C99.8636 73.2278 95.307 74.6867 90.5682 75.4161C87.4697 75.7808 85.2826 77.422 83.6422 79.7927C78.3565 87.4518 72.5241 94.7461 66.1449 101.676C65.5981 102.223 65.2335 102.952 65.0513 103.682C61.406 114.076 57.7607 124.471 54.2977 135.047C53.5687 137.053 53.5687 139.242 53.5687 141.248C53.3864 143.071 52.6573 143.983 51.0169 144.895C48.1007 146.171 45.3668 147.812 42.4506 149.271C42.086 149.454 41.5392 149.271 40.9924 149.271C41.357 148.907 41.5392 148.36 41.9038 148.177C44.82 146.536 47.9185 145.077 50.8347 143.618C51.3815 143.253 52.1105 142.524 52.1105 142.159C51.9283 135.594 55.0268 130.124 56.8494 124.106C59.0366 117.176 61.406 110.429 63.7754 103.499C64.1399 102.405 64.6868 101.493 65.4158 100.582C71.066 94.3814 76.7161 87.8165 81.2727 80.7045C83.8244 76.875 87.1052 74.6867 91.6618 73.9572C95.4893 73.2278 99.1346 71.5866 102.78 70.3101C104.967 69.5806 106.972 68.6688 109.159 68.3041C112.258 67.757 113.898 69.0336 114.262 72.316C116.996 70.1277 119.73 68.1218 122.1 65.9335C128.844 60.098 135.223 54.2625 141.967 48.6094C146.341 44.9622 151.262 41.6798 156.548 39.4915C161.287 37.6679 164.932 38.9444 166.754 43.1386C168.212 43.6857 168.03 45.3269 168.213 46.7858Z" stroke="white" stroke-width="2.5"/>
</svg>
