<svg width="229" height="230" viewBox="0 0 229 230" fill="none" xmlns="http://www.w3.org/2000/svg">
<path d="M114.699 227.812C177.109 227.812 227.703 177.192 227.703 114.749C227.703 52.3068 177.109 1.68713 114.699 1.68713C52.2893 1.68713 1.69592 52.3068 1.69592 114.749C1.69592 177.192 52.2893 227.812 114.699 227.812Z" fill="#800000" stroke="white" stroke-width="2.5"/>
<path d="M66.035 195.352C66.035 195.534 66.2173 195.899 66.2173 196.081C66.7641 195.899 67.4931 195.899 68.0399 195.534C75.5127 190.793 83.3501 186.234 91.7342 182.952C97.7489 180.581 103.946 178.575 109.414 174.928C113.241 172.375 117.251 170.369 121.443 168.363C127.276 165.627 132.561 162.163 137.118 157.604C143.862 150.674 151.334 144.474 159.172 138.821C162.088 136.633 164.822 134.262 167.556 131.891C168.285 131.344 168.467 130.432 169.014 129.703C170.108 128.062 170.837 126.056 172.295 124.779C175.575 121.861 176.305 118.397 175.575 114.385C174.846 110.92 174.117 107.638 173.388 104.173C172.477 99.249 171.201 94.5077 168.103 90.3134C167.009 88.8546 166.462 87.3957 166.462 85.7545C166.462 84.6603 165.916 83.3838 165.369 82.2897C162.635 77.1836 159.172 72.6247 155.162 68.6128C154.433 67.8834 154.251 67.1539 154.433 66.2421C154.797 64.6009 155.344 62.595 154.615 61.1361C152.793 56.3948 149.694 52.93 144.408 52.0182C138.94 50.924 133.473 51.2887 128.005 51.8358C127.276 51.8358 126.547 51.8358 126 51.4711C123.995 50.0122 121.808 50.0122 119.803 50.7416C114.882 52.2005 110.507 55.1183 106.68 58.5831C106.315 58.9478 105.951 59.3125 105.768 59.6772C103.217 64.9656 99.0247 69.1598 95.0149 73.5364C88.4534 81.0131 83.8969 89.4016 81.7097 99.0666C80.4338 104.537 79.158 110.008 77.6999 115.297C77.3353 116.938 76.9708 118.579 76.0595 119.856C72.232 125.326 67.1286 129.338 60.5671 131.344C57.2863 132.256 53.8233 132.985 50.5426 134.262C43.0698 137.18 35.597 140.28 28.1241 143.38C27.7596 143.562 27.5774 144.109 27.2128 144.474C27.3951 144.656 27.5774 144.656 27.5774 144.839C28.1241 144.656 28.6709 144.474 29.0355 144.292C33.9566 142.286 38.6955 140.097 43.7988 138.091C48.72 136.268 53.4588 134.262 58.5622 132.985C65.6705 131.344 71.1384 127.515 75.695 122.226C76.9708 120.767 77.6999 118.944 78.2467 117.302C79.3402 114.202 79.8871 110.738 80.7984 107.637C82.0742 102.714 83.1678 97.6078 84.8082 92.6841C87.5421 84.8427 92.281 78.0954 97.9311 72.0776C100.483 69.3422 103.217 66.6069 104.857 63.3244C108.32 56.9419 113.97 53.8417 120.35 51.6534C122.172 51.1063 123.813 51.2887 125.453 52.3829C126.182 52.7476 127.093 52.93 128.005 52.93C131.832 52.7476 135.66 52.3829 139.487 52.5652C144.773 52.7476 149.512 54.2065 152.61 59.3125C154.251 62.0479 154.251 64.6009 152.975 67.3363C150.605 66.4245 148.236 65.8774 146.413 63.6891C145.684 62.7773 144.044 62.0479 142.768 62.0479C140.034 61.8655 137.3 62.4126 134.566 62.5949C133.473 62.5949 132.379 62.7773 131.468 62.9597C131.468 63.142 131.468 63.3244 131.468 63.5067C132.014 63.5067 132.744 63.8714 133.29 63.6891C135.66 63.5067 138.211 63.142 140.581 62.9597C143.497 62.7773 145.684 63.6891 147.142 66.2421C147.689 67.1539 148.418 68.2481 149.147 69.1598C149.694 69.8893 150.059 70.6187 150.788 71.1658C150.97 71.3482 151.699 71.3482 152.063 71.5305C151.881 71.1658 151.881 70.8011 151.517 70.4364C150.788 69.5246 150.241 68.6128 149.512 67.701C149.694 67.5186 149.694 67.3363 149.876 67.3363C151.334 68.0657 153.157 68.6128 154.251 69.8893C158.443 73.9012 161.906 78.6425 164.64 83.9309C165.186 84.8427 165.186 85.9369 165.551 87.031C165.369 87.2134 165.004 87.2133 164.822 87.3957C163.546 85.9368 162.088 84.478 161.177 82.8367C159.719 80.2837 157.896 78.8249 155.162 78.4601C152.975 78.0954 150.788 77.5484 148.418 77.0013C148.236 77.0013 148.054 77.0012 147.325 77.1836C148.054 77.7307 148.418 78.2778 148.965 78.2778C150.605 78.6425 152.428 79.1896 154.251 79.3719C157.349 79.7366 159.536 81.1955 160.63 84.1133C161.177 85.5721 161.906 87.031 162.817 88.4899C163.182 89.0369 163.546 89.4017 164.093 89.7664C164.275 89.584 164.457 89.584 164.64 89.4016C164.457 88.6722 164.093 88.1251 163.728 87.2133C167.009 89.7663 171.019 96.696 171.201 99.9784C170.837 99.249 170.472 98.8843 170.108 98.3372C169.925 98.3372 169.743 98.5196 169.561 98.5196C169.743 99.249 169.743 99.9785 170.108 100.526C172.112 103.261 173.024 106.179 172.295 109.461C172.112 110.373 172.295 111.285 173.753 110.555C174.117 112.014 174.3 113.291 174.664 114.385C175.575 118.397 174.846 121.861 171.383 124.597C170.29 125.509 169.196 126.785 168.832 128.062C168.103 130.25 166.827 131.891 165.004 133.168C163.546 134.262 162.27 135.538 160.63 136.632C151.517 143.197 142.95 150.127 135.113 158.151C131.65 161.616 127.64 164.351 123.266 166.539C118.709 168.728 114.153 171.281 109.596 173.651C105.586 175.657 101.759 177.846 97.5666 179.669C95.0149 180.946 92.0987 181.857 89.547 182.769C81.1629 185.869 73.6901 190.793 66.035 195.352Z" stroke="white" stroke-width="2.5"/>
<path d="M66.035 195.352C73.6901 190.793 80.9806 185.869 89.3648 182.769C92.0987 181.675 94.8327 180.763 97.3844 179.669C101.394 177.845 105.404 175.657 109.414 173.651C113.97 171.281 118.345 168.728 123.084 166.539C127.458 164.351 131.468 161.798 134.931 158.151C142.768 150.127 151.334 143.197 160.448 136.632C161.906 135.538 163.364 134.262 164.822 133.168C166.462 131.709 167.92 130.25 168.65 128.062C169.014 126.785 170.108 125.509 171.201 124.597C174.664 121.861 175.393 118.397 174.482 114.385C174.117 113.108 173.935 111.832 173.571 110.555C172.113 111.285 171.93 110.373 172.113 109.461C172.842 105.996 171.748 103.261 169.925 100.525C169.561 99.9784 169.561 99.2489 169.379 98.5195C169.561 98.5195 169.743 98.3371 169.925 98.3371C170.29 98.8842 170.472 99.4313 171.019 99.9784C170.837 96.6959 166.827 89.7663 163.546 87.2133C163.911 87.9427 164.093 88.6722 164.457 89.4016C164.275 89.5839 164.093 89.584 163.911 89.7663C163.546 89.4016 162.999 88.8545 162.635 88.4898C161.906 87.0309 161.177 85.5721 160.448 84.1132C159.354 81.1955 157.167 79.7366 154.068 79.3719C152.246 79.1895 150.605 78.8248 148.783 78.2777C148.236 78.0953 147.871 77.7306 147.142 77.1835C147.871 77.0012 148.054 77.0012 148.236 77.0012C150.423 77.5483 152.61 78.0954 154.98 78.4601C157.714 79.0072 159.719 80.2836 160.994 82.8367C161.906 84.4779 163.364 85.9368 164.64 87.3956C164.822 87.2133 165.186 87.2133 165.369 87.0309C165.186 85.9368 165.004 84.8426 164.457 83.9308C161.723 78.8248 158.26 74.0835 154.068 69.8892C152.975 68.7951 151.152 68.248 149.694 67.3362C149.512 67.5186 149.512 67.7009 149.33 67.7009C150.059 68.6127 150.788 69.5245 151.334 70.4363C151.517 70.801 151.699 71.1658 151.881 71.5305C151.517 71.3481 150.97 71.5305 150.605 71.1657C150.059 70.6187 149.512 69.8892 148.965 69.1598C148.236 68.248 147.689 67.1538 146.96 66.242C145.502 63.689 143.133 62.5949 140.399 62.9596C138.029 63.142 135.478 63.5067 133.108 63.689C132.561 63.689 131.832 63.5067 131.285 63.5067C131.285 63.3243 131.285 63.142 131.285 62.9596C132.379 62.7772 133.473 62.7772 134.384 62.5949C137.118 62.4125 139.852 62.0478 142.586 62.0478C143.862 62.0478 145.502 62.7772 146.231 63.689C148.054 65.8773 150.423 66.4244 152.793 67.3362C154.068 64.6008 154.068 62.0478 152.428 59.3124C149.33 54.2064 144.773 52.7475 139.305 52.5651C135.477 52.5651 131.65 52.9299 127.822 52.9299C126.911 52.9299 126 52.7476 125.271 52.3828C123.63 51.2887 121.808 51.1063 120.167 51.6534C113.788 53.8417 108.138 57.1242 104.675 63.3243C102.852 66.6068 100.301 69.3422 97.7489 72.0775C92.0987 78.0954 87.3599 84.8426 84.6259 92.684C82.9855 97.6077 81.892 102.531 80.6161 107.637C79.7048 110.92 79.158 114.202 78.0644 117.302C77.5176 119.126 76.6063 120.95 75.5127 122.226C70.9561 127.515 65.4882 131.344 58.3799 132.985C53.2766 134.079 48.5377 136.085 43.6166 138.091C38.6954 139.915 33.7743 142.103 28.8532 144.291C28.3064 144.474 27.7596 144.656 27.3951 144.839C27.2128 144.656 27.0306 144.656 27.0306 144.474C27.3951 144.109 27.5774 143.562 27.9419 143.38C35.4147 140.28 42.8875 137.18 50.3603 134.262C53.6411 132.985 56.9218 132.256 60.3848 131.344C66.9463 129.52 71.8674 125.326 75.8772 119.855C76.7886 118.579 77.1531 116.938 77.5176 115.297C78.7935 109.826 80.2516 104.537 81.5274 99.0666C83.7146 89.4016 88.2712 80.8307 94.8327 73.5364C98.6602 69.1598 102.852 64.9656 105.586 59.6772C105.768 59.3125 106.133 58.7654 106.498 58.583C110.325 54.9358 114.517 52.2004 119.621 50.7416C121.808 50.0121 123.813 50.1945 125.818 51.471C126.364 51.8358 127.093 51.8357 127.822 51.8357C133.29 51.2887 138.758 51.1063 144.226 52.0181C149.512 53.1122 152.61 56.5771 154.433 61.136C154.98 62.5949 154.433 64.4185 154.251 66.242C154.068 67.3362 154.068 67.8833 154.98 68.6127C158.99 72.6246 162.453 77.1836 165.186 82.2896C165.733 83.3838 166.28 84.6603 166.28 85.7544C166.28 87.578 166.827 89.0369 167.92 90.3134C170.837 94.5076 172.295 99.249 173.206 104.173C173.753 107.637 174.664 110.92 175.393 114.385C176.305 118.397 175.576 121.861 172.113 124.779C170.654 126.056 169.925 128.062 168.832 129.703C168.285 130.432 167.92 131.344 167.374 131.891C164.64 134.262 161.906 136.632 158.99 138.821C151.152 144.474 143.679 150.674 136.936 157.604C132.379 162.163 127.093 165.627 121.261 168.363C117.069 170.369 113.059 172.375 109.232 174.928C103.764 178.575 97.5666 180.581 91.5519 182.951C83.1678 186.234 75.5127 190.611 67.8576 195.534C67.3109 195.899 66.5818 195.899 66.035 196.081C66.2173 195.717 66.2173 195.534 66.035 195.352Z" stroke="white" stroke-width="2.5"/>
</svg>
