<svg width="230" height="229" viewBox="0 0 230 229" fill="none" xmlns="http://www.w3.org/2000/svg">
<path d="M115.191 227.503C177.601 227.503 228.194 176.883 228.194 114.441C228.194 51.9983 177.601 1.37854 115.191 1.37854C52.7806 1.37854 2.18716 51.9983 2.18716 114.441C2.18716 176.883 52.7806 227.503 115.191 227.503Z" fill="#008000" stroke="white" stroke-width="2.5"/>
<path d="M74.1813 189.937C74.1813 190.12 74.3636 190.302 74.3636 190.667C74.9104 190.484 75.6394 190.484 76.1862 190.302C79.1024 188.843 81.8364 187.202 84.7526 185.743C85.4817 185.378 86.2107 185.196 87.122 184.831C88.9447 184.284 91.1318 184.102 92.7722 183.19C96.782 181.184 100.792 178.996 104.619 176.625C114.644 170.425 123.21 162.036 132.323 154.56C132.688 154.195 133.052 153.466 133.235 152.918C133.417 151.277 134.511 150.183 135.969 149.454C137.791 148.542 139.796 147.448 141.801 146.718C148.545 143.983 151.461 134.683 146.175 129.577C145.264 128.847 145.446 127.935 145.993 127.024C147.087 125.565 147.998 123.923 148.909 122.282C150.003 120.276 150.368 118.088 149.456 115.717C148.363 112.8 145.993 110.794 143.442 109.152C141.437 107.876 139.432 106.782 136.88 107.876C136.515 108.058 135.969 107.511 135.422 107.329C135.604 106.964 135.786 106.417 135.969 106.052C137.062 105.323 137.974 104.593 139.067 103.864C146.54 99.8521 153.831 95.8403 160.392 90.3695C167.865 84.3517 176.067 79.428 184.086 73.9572C186.091 72.6807 188.096 71.2219 189.919 69.763C190.648 69.2159 191.195 68.1218 191.377 67.21C192.288 62.651 187.914 56.9979 182.446 58.6391C176.978 60.2803 171.692 62.1039 166.771 65.0217C164.22 66.4805 161.668 67.757 159.116 69.2159C149.821 74.3219 139.978 78.6986 131.594 85.4458C129.954 86.7223 128.314 87.6341 126.673 88.9106C125.58 89.6401 124.668 89.2753 124.122 88.1812C122.846 85.4458 123.028 82.8928 123.939 80.1574C125.58 75.2337 127.038 70.1277 129.043 65.3864C132.506 56.9979 136.515 48.7918 140.343 40.5856C141.437 38.215 142.53 35.8443 143.077 33.4736C143.806 30.7383 142.895 28.1852 140.708 26.3616C138.52 24.5381 135.969 24.9028 133.599 26.1793C132.141 27.0911 130.683 28.3676 129.589 29.6441C121.388 41.3151 113.003 52.8036 107.353 65.7511C105.531 69.763 103.89 73.5925 101.885 77.422C100.792 79.6103 99.1514 81.7986 97.5111 83.6222C95.5062 85.8105 93.8658 88.1812 92.5899 90.9166C91.4964 93.1049 90.0382 94.9285 88.5801 96.9344C86.2107 99.8521 83.4768 102.405 81.2896 105.505C72.7232 116.629 64.3391 127.753 55.7727 138.877C54.8614 140.153 53.4032 141.248 51.9451 141.977C47.5708 144.348 43.0142 146.536 38.4576 148.724C38.0931 148.907 37.7286 149.089 37.364 149.454C37.364 149.636 37.364 149.818 37.5463 150.001C38.0931 150.001 38.6399 150.001 39.0044 149.818C43.561 147.63 47.9353 145.442 52.4919 143.253C54.3146 142.342 55.7727 141.065 56.8663 139.424C58.8712 136.506 61.0583 133.588 63.2455 130.853C71.6296 119.547 79.8315 108.241 89.3092 98.0286C91.1318 96.0226 92.5899 93.8343 93.8658 91.2813C94.7771 89.2753 95.8707 87.2694 97.5111 85.8105C100.245 83.0752 102.25 80.1574 103.89 76.6926C104.802 74.6867 105.713 72.8631 106.624 70.8571C112.457 56.4508 121.205 43.8681 130.136 31.2853C131.23 29.6441 132.688 28.1852 134.328 27.0911C138.338 24.9028 141.983 26.9087 142.348 31.4677C142.348 32.7442 142.166 34.0207 141.619 35.2972C140.525 38.0326 139.249 40.5856 137.974 43.1386C131.594 54.9919 127.22 67.757 123.028 80.5221C122.117 83.4399 122.299 86.1753 123.575 88.9106C124.486 90.7342 125.397 91.0989 127.22 90.0048C129.407 88.7283 131.412 87.2694 133.417 85.8105C138.338 82.3457 143.259 78.8809 148.727 76.1455C155.289 72.8631 161.85 69.2159 168.229 65.7511C172.968 63.0157 178.072 61.3745 183.175 59.7333C187.185 58.4568 191.012 62.651 190.648 66.4805C190.466 67.3923 189.919 68.4865 189.19 69.0336C186.638 71.0395 183.904 72.6807 181.17 74.5043C173.697 79.6103 166.042 84.3517 159.116 90.0048C154.195 94.0167 148.909 97.4815 143.259 100.217C141.437 101.129 139.796 102.04 138.156 102.952C137.062 103.682 135.969 104.411 134.875 105.323C134.511 105.688 134.146 106.599 134.328 106.964C134.693 107.694 135.422 108.241 136.151 108.605C136.515 108.788 137.245 108.423 137.791 108.423C138.885 108.423 140.161 108.241 141.072 108.788C143.077 110.064 145.264 111.341 146.905 112.982C149.274 115.353 149.638 118.27 147.998 121.188C147.087 123.012 145.811 124.835 144.535 126.841C142.53 125.2 140.708 123.741 139.067 122.282C138.885 122.1 138.52 122.1 138.338 121.918C138.338 122.282 138.156 122.829 138.338 122.829C138.885 123.559 139.796 124.106 140.343 124.835C142.166 126.659 144.353 128.3 145.993 130.306C149.092 134.136 148.363 139.789 144.717 142.889C144.353 143.071 143.988 143.436 143.806 143.436C140.89 143.071 138.52 144.165 136.698 146.354C135.057 148.177 132.506 149.271 132.506 152.007C132.506 152.371 131.959 152.736 131.594 153.101C126.673 157.295 121.934 161.489 116.831 165.501C107.536 172.796 98.2401 180.272 86.2107 183.19C81.6541 185.196 78.0088 187.931 74.1813 189.937Z" stroke="white" stroke-width="2.5"/>
<path d="M74.1813 189.937C78.0088 187.931 81.6541 185.014 85.8462 184.102C97.8756 181.184 107.171 173.707 116.466 166.413C121.57 162.401 126.309 158.207 131.23 154.013C131.594 153.648 132.141 153.283 132.141 152.918C132.323 150.001 134.875 148.907 136.333 147.265C138.156 145.259 140.525 144.165 143.442 144.348C143.806 144.348 144.171 143.983 144.353 143.801C147.998 140.518 148.727 134.865 145.629 131.218C143.988 129.212 141.983 127.571 139.979 125.747C139.249 125.018 138.52 124.471 137.974 123.741C137.791 123.559 137.974 123.012 137.974 122.829C138.156 123.012 138.52 123.012 138.703 123.194C140.525 124.653 142.348 126.112 144.171 127.753C145.446 125.747 146.54 123.923 147.634 122.1C149.092 119.182 148.909 116.264 146.54 113.894C144.717 112.253 142.712 110.794 140.708 109.7C139.796 109.152 138.52 109.517 137.427 109.335C136.88 109.335 136.151 109.7 135.786 109.517C135.057 109.152 134.328 108.605 133.964 107.876C133.782 107.511 134.146 106.599 134.511 106.235C135.422 105.323 136.515 104.593 137.791 103.864C139.432 102.77 141.254 102.04 142.895 101.129C148.545 98.2109 153.648 94.7461 158.752 90.9166C165.86 85.4458 173.515 80.5221 180.806 75.4161C183.54 73.5925 186.273 71.9513 188.825 69.9454C189.554 69.3983 190.283 68.3041 190.283 67.3923C190.648 63.5628 186.82 59.3686 182.81 60.6451C177.525 62.2863 172.604 63.9275 167.865 66.6629C161.486 70.3101 154.924 73.9572 148.363 77.0573C142.895 79.7927 137.974 83.0752 133.052 86.7223C131.048 88.1812 129.043 89.6401 126.856 90.9166C125.033 92.0107 124.122 91.646 123.21 89.8224C121.752 87.0871 121.57 84.3517 122.663 81.4339C126.856 68.6688 131.23 55.9037 137.609 44.0504C139.067 41.4974 140.161 38.9444 141.254 36.209C141.801 35.1149 141.983 33.656 141.983 32.3795C141.619 27.8205 137.974 25.8146 133.964 28.0029C132.323 28.9147 130.865 30.5559 129.772 32.1971C120.841 44.7799 112.092 57.3626 106.26 71.7689C105.531 73.7749 104.437 75.5985 103.526 77.6044C102.068 81.0692 99.8805 84.1693 97.1465 86.7223C95.6884 88.1812 94.4126 90.3695 93.5013 92.1931C92.2254 94.7461 90.7673 96.9344 88.9447 98.9404C79.467 109.152 71.2651 120.459 62.881 131.765C60.6938 134.683 58.5066 137.418 56.5017 140.336C55.4081 141.977 53.95 143.253 52.1274 144.165C47.5708 146.354 43.1965 148.542 38.6399 150.73C38.2754 150.913 37.7286 150.73 37.1818 150.913C37.1818 150.73 37.1818 150.548 36.9995 150.365C37.364 150.183 37.7286 150.001 38.0931 149.636C42.6497 147.448 47.2063 145.259 51.5806 142.889C53.0387 142.159 54.3146 141.065 55.4081 139.789C63.9745 128.665 72.3587 117.541 80.9251 106.417C83.2945 103.499 85.8462 100.764 88.2156 97.8462C89.6737 96.0226 91.1318 94.0167 92.2254 91.8284C93.5013 89.093 95.1416 86.7223 97.1465 84.534C98.7869 82.7105 100.427 80.5221 101.521 78.3338C103.526 74.5043 105.348 70.6748 106.989 66.6629C112.821 53.5331 121.023 42.0445 129.225 30.5559C130.136 29.097 131.594 27.8205 133.235 27.0911C135.604 25.6322 138.156 25.4499 140.343 27.2735C142.712 29.097 143.442 31.6501 142.712 34.3854C141.983 36.7561 141.072 39.1268 139.979 41.4974C136.333 49.7036 132.323 57.9097 128.678 66.2982C126.673 71.0395 125.215 76.1455 123.575 81.0692C122.663 83.8046 122.481 86.3576 123.757 89.093C124.304 90.3695 125.033 90.7342 126.309 89.8224C127.949 88.7283 129.772 87.6341 131.23 86.3576C139.614 79.6104 149.274 75.0514 158.752 70.1277C161.303 68.6688 163.855 67.5747 166.407 65.9335C171.328 62.8334 176.614 61.0098 182.081 59.5509C187.549 57.9097 191.924 63.5628 191.012 68.1218C190.83 69.0336 190.283 69.9454 189.554 70.6748C187.732 72.1337 185.727 73.4102 183.722 74.869C175.702 80.3398 167.5 85.2635 160.028 91.2813C153.466 96.7521 145.993 100.582 138.703 104.776C137.609 105.323 136.515 106.235 135.604 106.964C135.24 107.147 135.24 107.694 135.057 108.241C135.604 108.423 136.151 108.97 136.515 108.788C139.067 107.694 141.072 108.788 143.077 110.064C145.629 111.705 147.998 113.529 149.092 116.629C149.821 118.817 149.638 121.006 148.545 123.194C147.634 124.835 146.722 126.294 145.629 127.935C145.082 128.847 144.9 129.577 145.811 130.488C151.097 135.594 148.18 144.895 141.437 147.63C139.432 148.36 137.609 149.454 135.604 150.365C134.146 151.095 133.052 152.007 132.87 153.83C132.87 154.377 132.506 155.107 131.959 155.472C122.846 162.948 114.462 171.154 104.255 177.537C100.427 179.908 96.4175 182.096 92.4077 184.102C90.585 185.014 88.5801 185.196 86.7575 185.743C86.0284 185.925 85.1171 186.29 84.3881 186.655C81.4719 188.114 78.7379 189.755 75.8217 191.214C75.2749 191.578 74.5458 191.396 73.999 191.578C74.3636 190.484 74.1813 190.12 74.1813 189.937Z" stroke="white" stroke-width="2.5"/>
</svg>
